<?xml version="1.0" encoding="iso-8859-1"?>
<!-- Generator: Adobe Illustrator 19.0.0, SVG Export Plug-In . SVG Version: 6.00 Build 0)  -->
<svg version="1.1" id="Layer_1" xmlns="http://www.w3.org/2000/svg" xmlns:xlink="http://www.w3.org/1999/xlink" x="0px" y="0px"
	 viewBox="0 0 460.958 460.958" style="enable-background:new 0 0 460.958 460.958;" xml:space="preserve">
<g>
	<g>
		<path d="M337.843,23.957c-45.74,0-86.155,25.047-107.364,62.788c-21.209-37.741-61.623-62.788-107.364-62.788
			C55.229,23.957,0,79.186,0,147.072c0,54.355,37.736,119.46,112.16,193.506c54.115,53.84,107.363,92.031,109.603,93.631
			c2.607,1.861,5.662,2.792,8.716,2.792s6.109-0.93,8.715-2.792c2.241-1.6,55.489-39.791,109.604-93.631
			c74.424-74.046,112.16-139.151,112.16-193.506C460.958,79.186,405.729,23.957,337.843,23.957z M327.919,319.032
			c-39.843,39.681-80.171,71.279-97.44,84.307c-17.269-13.029-57.597-44.626-97.44-84.307C65.63,251.899,30,192.436,30,147.072
			c0-51.344,41.771-93.115,93.115-93.115c47.279,0,87.03,35.369,92.464,82.271c0.876,7.565,7.284,13.273,14.9,13.273
			c7.616,0,14.023-5.708,14.9-13.273c5.435-46.902,45.185-82.271,92.464-82.271c51.344,0,93.115,41.771,93.115,93.115
			C430.958,192.436,395.328,251.899,327.919,319.032z"/>
	</g>
</g>
<g>
</g>
<g>
</g>
<g>
</g>
<g>
</g>
<g>
</g>
<g>
</g>
<g>
</g>
<g>
</g>
<g>
</g>
<g>
</g>
<g>
</g>
<g>
</g>
<g>
</g>
<g>
</g>
<g>
</g>
</svg>
