<?xml version="1.0" encoding="UTF-8" standalone="no"?>
<svg
   xmlns:dc="http://purl.org/dc/elements/1.1/"
   xmlns:cc="http://creativecommons.org/ns#"
   xmlns:rdf="http://www.w3.org/1999/02/22-rdf-syntax-ns#" 
   xmlns:svg="http://www.w3.org/2000/svg"
   xmlns="http://www.w3.org/2000/svg"
   viewBox="42 0 138 128"
   width="67px"
   height="62px"
   xml:space="preserve"
   version="1.1"
   id="svg2">
    <metadata
     id="metadata8"><rdf:RDF><cc:Work
         rdf:about=""><dc:format>image/svg+xml</dc:format><dc:type
           rdf:resource="http://purl.org/dc/dcmitype/StillImage" /></cc:Work></rdf:RDF>
    </metadata>
    <defs
     id="defs6"><clipPath
       id="clipPath24"
       clipPathUnits="userSpaceOnUse"><path
         id="path26"
         d="m 0,196.928 187.973,0 L 187.973,0 0,0 0,196.928 Z" /></clipPath><clipPath
       id="clipPath76"
       clipPathUnits="userSpaceOnUse"><path
         id="path78"
         d="m 99.234,196.928 -44.355,-25.608 0,-51.217 44.355,-25.608 44.354,25.608 0,51.217 -44.354,25.608 z" /></clipPath><linearGradient
       id="linearGradient84"
       spreadMethod="pad"
       gradientTransform="matrix(-4.5e-6,-101.8233,-101.8233,4.5e-6,99.233398,196.66162)"
       gradientUnits="userSpaceOnUse"
       y2="0"
       x2="1"
       y1="0"
       x1="0"><stop
         id="stop86"
         offset="0"
         style="stop-opacity:1;stop-color:#273288" /><stop
         id="stop88"
         offset="1"
         style="stop-opacity:1;stop-color:#735bb3" /></linearGradient><clipPath
       id="clipPath96"
       clipPathUnits="userSpaceOnUse"><path
         id="path98"
         d="m 88.718,150.034 -14.222,6.744 -40.129,-30.213 0,-4.282 38.166,18.349 18.936,-9.989 23.453,11.838 28.666,-16.252 0,31.304 -29.051,11.607 -25.819,-19.106 z" /></clipPath><linearGradient
       id="linearGradient104"
       spreadMethod="pad"
       gradientTransform="matrix(-116.76774,13.315537,13.315537,116.76774,154.27051,136.60937)"
       gradientUnits="userSpaceOnUse"
       y2="0"
       x2="1"
       y1="0"
       x1="0"><stop
         id="stop106"
         offset="0"
         style="stop-opacity:1;stop-color:#e6eb14" /><stop
         id="stop108"
         offset="0.16350192"
         style="stop-opacity:1;stop-color:#e6eb14" /><stop
         id="stop110"
         offset="1"
         style="stop-opacity:1;stop-color:#59c251" /></linearGradient></defs>
    <g
     transform="matrix(1.25,0,0,-1.25,0,246.16)"
     id="g10">

        <g
       id="g20"><g
         clip-path="url(#clipPath24)"
         id="g22"></g></g><g
       id="g72">
        <g
         clip-path="url(#clipPath76)"
         id="g74"><g
           id="g80"><g
             id="g82"><path
               id="path90"
               style="fill:url(#linearGradient84);stroke:none"
               d="m 99.234,196.928 -44.355,-25.608 0,-51.217 44.355,-25.608 44.354,25.608 0,51.217 -44.354,25.608 z" /></g></g></g></g><g
       id="g92"><g
         clip-path="url(#clipPath96)"
         id="g94"><g
           id="g100"><g
             id="g102"><path
               id="path112"
               style="fill:url(#linearGradient104);stroke:none"
               d="m 88.718,150.034 -14.222,6.744 -40.129,-30.213 0,-4.282 38.166,18.349 18.936,-9.989 23.453,11.838 28.666,-16.252 0,31.304 -29.051,11.607 -25.819,-19.106 z" /></g></g></g></g></g></svg>