<?xml version="1.0" encoding="iso-8859-1"?>
<!-- Generator: Adobe Illustrator 19.0.0, SVG Export Plug-In . SVG Version: 6.00 Build 0)  -->
<svg version="1.1" id="Layer_1" xmlns="http://www.w3.org/2000/svg" xmlns:xlink="http://www.w3.org/1999/xlink" x="0px" y="0px"
	 viewBox="0 0 390 390" style="enable-background:new 0 0 390 390;" xml:space="preserve">
<g>
	<g>
		<g>
			<path d="M375,125h-30h-34.391l-65.036-64.629c-5.878-5.839-15.374-5.809-21.213,0.067c-5.84,5.876-5.81,15.374,0.066,21.213
				l43.622,43.348H121.091l44.504-44.405c5.864-5.851,5.875-15.349,0.023-21.213c-5.851-5.864-15.349-5.875-21.213-0.024
				l-65.788,65.642H45H15c-8.284,0-15,6.716-15,15s6.716,15,15,15h17.293l27.911,167.418c1.206,7.23,7.461,12.531,14.791,12.533
				l240.004,0.074c0.002,0,0.003,0,0.005,0c7.332,0,13.591-5.302,14.796-12.535l27.907-167.491H375c8.284,0,15-6.716,15-15
				C390,131.716,383.284,125,375,125z M302.297,305.021l-214.59-0.066L62.708,155h264.586L302.297,305.021z"/>
			<path d="M113.432,261.682c0.853,7.671,7.348,13.345,14.89,13.345c0.554,0,1.112-0.031,1.676-0.093
				c8.233-0.915,14.166-8.331,13.251-16.565l-6.672-60.024c-0.915-8.234-8.326-14.167-16.565-13.251
				c-8.233,0.915-14.166,8.331-13.251,16.565L113.432,261.682z"/>
			<path d="M195,274.988c8.284,0,15-6.716,15-15v-59.986c0-8.284-6.716-15-15-15s-15,6.716-15,15v59.986
				C180,268.272,186.716,274.988,195,274.988z"/>
			<path d="M260.02,274.86c0.563,0.063,1.121,0.093,1.675,0.093c7.542,0,14.037-5.674,14.89-13.345l6.66-59.951
				c0.914-8.235-5.019-15.651-13.253-16.565c-8.225-0.913-15.649,5.018-16.564,13.252l-6.66,59.951
				C245.853,266.529,251.787,273.945,260.02,274.86z"/>
		</g>
	</g>
</g>
<g>
</g>
<g>
</g>
<g>
</g>
<g>
</g>
<g>
</g>
<g>
</g>
<g>
</g>
<g>
</g>
<g>
</g>
<g>
</g>
<g>
</g>
<g>
</g>
<g>
</g>
<g>
</g>
<g>
</g>
</svg>
